<?xml version="1.0" encoding="UTF-8" standalone="no"?>
<!-- Created with Inkscape (http://www.inkscape.org/) -->

<svg
   xmlns:dc="http://purl.org/dc/elements/1.1/"
   xmlns:cc="http://creativecommons.org/ns#"
   xmlns:rdf="http://www.w3.org/1999/02/22-rdf-syntax-ns#"
   xmlns:svg="http://www.w3.org/2000/svg"
   xmlns="http://www.w3.org/2000/svg"
   xmlns:sodipodi="http://sodipodi.sourceforge.net/DTD/sodipodi-0.dtd"
   xmlns:inkscape="http://www.inkscape.org/namespaces/inkscape"
   width="744.09448819"
   height="1052.3622047"
   id="svg3078"
   version="1.1"
   inkscape:version="0.48.5 r10040"
   sodipodi:docname="New document 7">
  <defs
     id="defs3080" />
  <sodipodi:namedview
     id="base"
     pagecolor="#ffffff"
     bordercolor="#666666"
     borderopacity="1.0"
     inkscape:pageopacity="0.0"
     inkscape:pageshadow="2"
     inkscape:zoom="0.49497475"
     inkscape:cx="375"
     inkscape:cy="520"
     inkscape:document-units="px"
     inkscape:current-layer="layer1"
     showgrid="false"
     inkscape:window-width="867"
     inkscape:window-height="825"
     inkscape:window-x="347"
     inkscape:window-y="0"
     inkscape:window-maximized="0" />
  <metadata
     id="metadata3083">
    <rdf:RDF>
      <cc:Work
         rdf:about="">
        <dc:format>image/svg+xml</dc:format>
        <dc:type
           rdf:resource="http://purl.org/dc/dcmitype/StillImage" />
        <dc:title></dc:title>
      </cc:Work>
    </rdf:RDF>
  </metadata>
  <g
     inkscape:label="Layer 1"
     inkscape:groupmode="layer"
     id="layer1">
    <path
       style="fill:none;stroke:#000000;stroke-width:1px;stroke-linecap:butt;stroke-linejoin:miter;stroke-opacity:1"
       d="m 111.11678,304.8493 c 44.44671,-127.27922 197.9899,-169.70563 197.9899,-169.70563 0,0 242.43661,-6.06091 296.98485,36.36549 54.54823,42.42641 46.46701,72.73099 52.52793,84.85282 6.06091,12.12183 -6.06092,86.87312 -6.06092,86.87312 0,0 0,127.27922 -109.09647,163.64471 -109.09648,36.36549 -131.31983,44.44671 -208.09143,60.60915 -76.77159,16.16244 276.7818,58.58885 276.7818,58.58885 0,0 111.11678,76.77159 52.52793,159.6041 -58.58884,82.83251 -127.27922,163.64471 -127.27922,163.64471 0,0 -145.46196,86.87308 -268.70057,-10.10152 C 145.46197,842.25045 119.198,795.78344 115.15739,771.53978"
       id="path3086"
       inkscape:connector-curvature="0" />
  </g>
</svg>
