<?xml version="1.0" encoding="UTF-8" standalone="no"?>
<!-- Created with Inkscape (http://www.inkscape.org/) -->

<svg
   xmlns:dc="http://purl.org/dc/elements/1.1/"
   xmlns:cc="http://creativecommons.org/ns#"
   xmlns:rdf="http://www.w3.org/1999/02/22-rdf-syntax-ns#"
   xmlns:svg="http://www.w3.org/2000/svg"
   xmlns="http://www.w3.org/2000/svg"
   xmlns:sodipodi="http://sodipodi.sourceforge.net/DTD/sodipodi-0.dtd"
   xmlns:inkscape="http://www.inkscape.org/namespaces/inkscape"
   width="744.09448819"
   height="1052.3622047"
   id="svg2"
   version="1.1"
   inkscape:version="0.48.5 r10040"
   sodipodi:docname="New document 1">
  <defs
     id="defs4" />
  <sodipodi:namedview
     id="base"
     pagecolor="#ffffff"
     bordercolor="#666666"
     borderopacity="1.0"
     inkscape:pageopacity="0.0"
     inkscape:pageshadow="2"
     inkscape:zoom="0.52181818"
     inkscape:cx="444.28571"
     inkscape:cy="488.57143"
     inkscape:document-units="px"
     inkscape:current-layer="layer1"
     showgrid="false"
     inkscape:window-width="1436"
     inkscape:window-height="856"
     inkscape:window-x="4"
     inkscape:window-y="0"
     inkscape:window-maximized="1" />
  <metadata
     id="metadata7">
    <rdf:RDF>
      <cc:Work
         rdf:about="">
        <dc:format>image/svg+xml</dc:format>
        <dc:type
           rdf:resource="http://purl.org/dc/dcmitype/StillImage" />
        <dc:title></dc:title>
      </cc:Work>
    </rdf:RDF>
  </metadata>
  <g
     inkscape:label="Layer 1"
     inkscape:groupmode="layer"
     id="layer1">
    <path
       style="fill:none;stroke:#000000;stroke-width:1.19415224px;stroke-linecap:butt;stroke-linejoin:miter;stroke-opacity:1"
       d="m 648.7615,349.01269 c 0,-14.40342 0,-28.80683 0,-43.21025 0,-2.74351 0,-5.48701 0,-8.23052 0,-1.37176 0.33275,-2.77015 0,-4.11526 -0.52615,-2.12681 -2.16575,-4.02576 -2.54516,-6.17289 -0.47992,-2.71594 0.37475,-5.5038 0,-8.23053 -1.32192,-9.61842 -4.83258,-14.8723 -7.63545,-24.69156 -2.32078,-8.13038 -2.58709,-16.59666 -5.09031,-24.69158 -1.30135,-4.20835 -3.96603,-8.1042 -5.0903,-12.34579 -1.43315,-5.40696 -1.00713,-11.07293 -2.54515,-16.46104 -1.0273,-3.59897 -3.64556,-6.78414 -5.0903,-10.28815 -5.01056,-12.15243 0.69523,-4.67489 -7.63545,-16.46105 -9.04941,-12.80304 -0.28279,-0.22862 -12.72575,-10.28815 -1.34141,-1.08447 -1.36007,-2.91768 -2.54515,-4.11526 -2.24851,-2.27228 -5.29299,-3.96351 -7.63546,-6.17289 -2.7606,-2.60379 -4.91983,-5.59601 -7.63544,-8.23053 -1.53618,-1.49031 -3.85572,-2.45176 -5.09031,-4.11526 -1.3803,-1.85985 -1.48833,-4.17933 -2.54514,-6.1729 -1.49458,-2.81932 -3.39353,-5.48701 -5.09031,-8.23052 -0.84838,-1.37175 -1.40692,-2.88832 -2.54514,-4.11526 -7.10191,-7.65539 -3.95221,-0.21743 -10.18061,-10.28816 -5.41953,-8.76285 1.11741,-4.09014 -7.63545,-12.34578 -5.46572,-5.155224 -12.43941,-9.187324 -17.81606,-14.403414 -1.95824,-1.899789 -2.92734,-4.42424 -5.09029,-6.172894 -8.11066,-6.557066 -10.95277,-5.941724 -20.3612,-10.288152 -2.65587,-1.226938 -5.01249,-2.842935 -7.63546,-4.115259 -1.6267,-0.789069 -3.57267,-1.137434 -5.0903,-2.057635 -1.91968,-1.163976 -2.94405,-3.247691 -5.09031,-4.115259 -32.87041,-13.287065 9.97649,8.806391 -17.81605,-6.172893 -2.54515,-1.37176 -5.09029,-2.74351 -7.63545,-4.11527 -3.39354,-2.743498 -6.27536,-5.975363 -10.18061,-8.230517 -2.1831,-1.260664 -5.16955,-1.203242 -7.63544,-2.057635 -3.48732,-1.208277 -6.78708,-2.743499 -10.18061,-4.115259 -4.24192,-1.371749 -8.48384,-2.743509 -12.72575,-4.115261 -6.7235,-2.174251 -13.37889,-4.560074 -20.36121,-6.172893 -26.19459,-6.050587 5.83339,1.935327 -20.3612,-4.115261 -5.1592,-1.191704 -9.97826,-3.402121 -15.27091,-4.115262 -2.51052,-0.338272 -5.0903,0 -7.63545,0 -3.39353,0 -6.78707,0 -10.18059,0 -3.39354,0 -6.81328,-0.34029 -10.18061,0 -8.01693,0.810162 -13.39115,2.952921 -20.36121,6.172893 -2.65586,1.226934 -4.8995,3.009318 -7.63545,4.115262 -2.39959,0.969976 -5.33495,0.941724 -7.63545,2.057631 -2.05764,0.998097 -3.03266,3.117168 -5.0903,4.115256 -2.3005,1.115917 -5.0903,1.37176 -7.63545,2.057635 -2.54517,0.685875 -5.0903,1.37176 -7.63546,2.057635 -2.54515,0.685874 -5.0903,1.371749 -7.63545,2.057624 -2.54515,0.685885 -4.97958,1.750897 -7.63545,2.057635 -3.35942,0.387995 -6.91764,-0.753701 -10.1806,0 -2.9412,0.679378 -4.8995,3.009317 -7.63545,4.115258 -12.40742,5.015403 -3.1376,-1.158875 -17.81606,4.115259 -4.52052,1.624286 -8.22227,4.517964 -12.72576,6.172894 -10.61844,3.902052 -19.28599,3.246016 -27.99666,10.288163 -4.32591,3.497296 -6.22887,8.570121 -10.18059,12.345777 -5.425,5.183266 -12.35034,9.24819 -17.81605,14.403422 -4.74953,4.479718 -8.67751,9.4942 -12.72577,14.40341 -19.19659,23.27927 -5.8184,9.07144 -22.90634,28.80683 -9.74523,11.25506 -7.53361,6.72155 -17.81607,20.57631 -8.45447,11.39173 -1.37632,4.91298 -10.180587,14.40342 -3.817733,4.11526 -2.545156,0 -7.635453,6.17289 -0.470602,0.57068 0,1.37175 0,2.05763 -0.848382,1.37176 -1.406929,2.88833 -2.545157,4.11526 -1.439745,1.55197 -3.855716,2.45177 -5.090297,4.11527 -6.097042,8.21526 0.06096,3.91826 -2.545156,12.34578 -1.108065,3.58328 -3.888202,6.72474 -5.090297,10.28816 -4.94576,14.66083 -1.145094,9.05138 -2.545156,22.63394 -0.498185,4.83313 -2.085046,9.56781 -2.545142,14.40341 -0.39041,4.10313 0,8.23053 0,12.34579 0,13.03166 0,26.06332 0,39.09498 0,5.48701 0,10.97403 0,16.46105 0,2.05762 0,4.11526 0,6.17289 0,2.05762 -0.359943,4.13594 0,6.17289 0.49468,2.79952 1.696761,5.48701 2.545142,8.23052 1.608935,5.20295 2.656106,9.48358 5.090311,14.40342 0.704547,1.42398 1.840609,2.69129 2.545142,4.11526 0.996385,2.01381 1.548785,4.15909 2.545156,6.1729 1.409094,2.84795 4.170107,5.25476 5.090297,8.23051 0.411528,1.3308 -0.630158,2.84163 0,4.11527 1.136049,2.29609 3.722323,3.961 5.090299,6.17289 1.199797,1.93995 1.548783,4.15908 2.545155,6.17289 1.409094,2.84795 3.681223,5.38258 5.090293,8.23053 4.90219,9.90794 0.26354,2.69678 5.09031,14.40341 1.44475,3.50402 3.48613,6.82977 5.09031,10.28815 0.942,2.03084 1.16483,4.31305 2.54515,6.1729 1.23457,1.66349 3.59128,2.60041 5.0903,4.11527 1.91086,1.93105 3.17942,4.24182 5.0903,6.17288 6.29058,6.35704 3.05561,2.33276 10.1806,6.17289 2.99487,1.61414 4.8248,4.35508 7.63544,6.1729 4.7772,3.08969 10.18061,5.48701 15.27092,8.23052 2.54515,1.37175 5.24686,2.57041 7.63545,4.11526 1.87376,1.21188 2.88472,3.35108 5.09029,4.11526 3.97617,1.37766 8.62183,0.95169 12.72576,2.05764 7.19878,1.93995 13.31577,5.95216 20.36121,8.23051 4.98187,1.61105 10.38619,2.32025 15.27089,4.11527 4.50349,1.65493 8.1086,4.73722 12.72576,6.1729 6.52964,2.03034 13.72426,2.3267 20.36121,4.11526 3.59938,0.96997 6.65788,2.97607 10.1806,4.11525 4.98188,1.61105 10.22829,2.63284 15.2709,4.11526 4.29362,1.26226 8.31806,3.14343 12.72576,4.11527 11.99971,1.61686 14.82058,1.65967 25.4515,4.11526 12.50978,2.88958 4.22478,1.82438 20.36121,6.1729 3.31847,0.89427 7.05192,0.79293 10.1806,2.05762 3.79408,1.53368 6.38652,4.63923 10.1806,6.17289 5.52428,2.23306 12.29179,1.88222 17.81606,4.11527 2.73595,1.10594 4.77133,3.24694 7.63545,4.11526 9.00549,2.73019 16.1266,2.05763 25.4515,2.05763 8.48384,0 16.96767,0 25.45151,0 14.42252,0 28.84505,0 43.26756,0 3.39353,0 6.78708,0 10.18061,0 3.39352,0 6.82117,0.38799 10.18059,0 2.65587,-0.30673 4.97959,-1.7509 7.63546,-2.05763 3.35943,-0.38799 6.78707,0 10.18061,0 2.54514,0 5.29608,0.81054 7.63544,0 3.89894,-1.3509 6.65111,-4.27061 10.1806,-6.17289 1.57845,-0.85072 3.39355,-1.37176 5.0903,-2.05764 3.39354,-1.37175 6.6933,-2.90697 10.18062,-4.11526 2.4659,-0.85438 5.23585,-1.08765 7.63545,-2.05763 2.73595,-1.10594 5.01246,-2.84292 7.63545,-4.11526 1.62669,-0.78907 3.51186,-1.2069 5.0903,-2.05762 0.99828,-0.53805 1.69676,-1.37176 2.54514,-2.05764 1.69678,-1.37176 3.75925,-2.50112 5.09031,-4.11526 2.10458,-2.55218 3.27349,-5.53773 5.09029,-8.23053 3.27531,-4.8545 6.73419,-9.62696 10.1806,-14.40341 2.4926,-3.45453 5.58842,-6.64731 7.63546,-10.28815 2.22032,-3.94905 3.25663,-8.26909 5.09031,-12.34579 1.44236,-6.86347 7.24674,-12.19367 10.18059,-18.51868 1.22822,-2.64788 1.5842,-5.51139 2.54516,-8.23051 0.73702,-2.08549 2.019,-4.04608 2.54514,-6.1729 0.33277,-1.34512 -0.63016,-2.84162 0,-4.11527 1.13605,-2.29608 3.51652,-4.05234 5.09031,-6.17289 0.97601,-1.3151 2.08505,-2.62738 2.54514,-4.11526 0.6173,-1.9962 -0.80484,-4.22085 0,-6.17289 1.19981,-2.90993 4.17011,-5.25477 5.09032,-8.23052 0.41153,-1.3308 -0.53658,-2.8139 0,-4.11526 0.37939,-0.9202 2.00856,-1.19007 2.54513,-2.05764 0.79985,-1.29327 -0.79983,-6.93725 0,-8.23052 0.53658,-0.86757 1.69678,-1.37175 2.54517,-2.05763 0,-1.37176 -0.53657,-2.8139 0,-4.11526 0.37939,-0.9202 1.69675,-1.37176 2.54514,-2.05763 0.84839,-1.37176 2.08505,-2.62739 2.54515,-4.11526 0.41153,-1.3308 0,-2.74351 0,-4.11527 0,-0.68587 -0.37941,-1.44416 0,-2.05762 2.21232,-3.5771 2.68857,-10.28816 7.63546,-10.28816 4.32591,0 -2.54516,6.79085 -2.54516,10.28816 0,2.82793 1.85915,5.45749 2.54516,8.23051 1.01205,4.09102 2.07794,8.1909 2.54515,12.34579 0.76808,6.83061 -0.93689,13.75949 0,20.57631 0.38628,2.81064 2.19708,5.41661 2.54514,8.23052 0.50652,4.09484 0,8.23052 0,12.34579 0,7.54464 0,15.08929 0,22.63394 0,23.31982 0,46.63963 0,69.95944 0,17.8328 0,35.66561 0,53.4984 0,7.54466 0,15.0893 0,22.63394 0,6.85877 0.4459,13.72702 0,20.57632 -0.40376,6.20229 -1.87961,12.33114 -2.54514,18.51867 -4.88906,55.33591 -0.117,5.1554 -5.09031,49.38314 -0.9249,8.22513 -2.03499,16.44282 -2.54514,24.69157 -0.33893,5.48017 0,10.97403 0,16.46105 0,4.80114 0.83985,9.65053 0,14.40342 -0.87347,4.94306 -3.98545,9.4907 -5.09031,14.40341 -0.60706,2.69925 0,5.48702 0,8.23052 0,2.05763 0,4.11527 0,6.17289 0,9.60228 0,19.20456 0,28.80683 0,0.80457 0.36591,13.51595 0,14.40343 -0.37941,0.9202 -1.87963,1.25056 -2.54514,2.05762 -1.0523,1.27609 -1.94526,2.6603 -2.54517,4.11526 -0.26827,0.65069 0,1.37176 0,2.05763 0,2.05764 0,4.11526 0,6.1729 0,6.17289 0,12.34578 0,18.51868 0,17.14692 0,34.29384 0,51.44076 0,8.9164 0,17.83281 0,26.74921 0,2.05762 0,4.11526 0,6.17289 0,1.37175 0.33278,2.77014 0,4.11526 -0.52614,2.12682 -2.16574,4.02576 -2.54513,6.1729 -0.47993,2.71592 0,5.487 0,8.23051 0,2.74351 0,5.48702 0,8.23053 0,7.54464 0,15.08929 0,22.63394 0,24.69154 0,49.38307 0,74.07477"
       id="path2991"
       inkscape:connector-curvature="0" />
  </g>
</svg>
